<svg width="211" height="67" viewBox="0 0 211 67" fill="none" xmlns="http://www.w3.org/2000/svg">
<g filter="url(#filter0_d_40_1331)">
<mask id="path-1-inside-1_40_1331" fill="white">
<path fill-rule="evenodd" clip-rule="evenodd" d="M122.74 42C121.414 42 120.142 42.5268 119.204 43.4645L108.171 54.4983C106.218 56.451 103.052 56.451 101.099 54.4983L90.0656 43.4645C89.1279 42.5268 87.8561 42 86.53 42H15C12.2386 42 10 39.7614 10 37V14C10 11.2386 12.2386 9 15 9H196C198.761 9 201 11.2386 201 14V37C201 39.7614 198.761 42 196 42H122.74Z"/>
</mask>
<path fill-rule="evenodd" clip-rule="evenodd" d="M122.74 42C121.414 42 120.142 42.5268 119.204 43.4645L108.171 54.4983C106.218 56.451 103.052 56.451 101.099 54.4983L90.0656 43.4645C89.1279 42.5268 87.8561 42 86.53 42H15C12.2386 42 10 39.7614 10 37V14C10 11.2386 12.2386 9 15 9H196C198.761 9 201 11.2386 201 14V37C201 39.7614 198.761 42 196 42H122.74Z" fill="white"/>
<path d="M90.0656 43.4645L90.7727 42.7574L90.0656 43.4645ZM119.204 43.4645L118.497 42.7574L119.204 43.4645ZM107.463 53.7912L118.497 42.7574L119.911 44.1716L108.878 55.2054L107.463 53.7912ZM90.7727 42.7574L101.807 53.7912L100.392 55.2054L89.3585 44.1716L90.7727 42.7574ZM86.53 43H15V41H86.53V43ZM9 37V14H11V37H9ZM15 8H196V10H15V8ZM202 14V37H200V14H202ZM196 43H122.74V41H196V43ZM202 37C202 40.3137 199.314 43 196 43V41C198.209 41 200 39.2091 200 37H202ZM196 8C199.314 8 202 10.6863 202 14H200C200 11.7909 198.209 10 196 10V8ZM9 14C9 10.6863 11.6863 8 15 8V10C12.7909 10 11 11.7909 11 14H9ZM15 43C11.6863 43 9 40.3137 9 37H11C11 39.2091 12.7909 41 15 41V43ZM89.3585 44.1716C88.6083 43.4214 87.5909 43 86.53 43V41C88.1213 41 89.6475 41.6321 90.7727 42.7574L89.3585 44.1716ZM118.497 42.7574C119.622 41.6321 121.149 41 122.74 41V43C121.679 43 120.662 43.4214 119.911 44.1716L118.497 42.7574ZM108.878 55.2054C106.534 57.5486 102.735 57.5486 100.392 55.2054L101.807 53.7912C103.369 55.3533 105.901 55.3533 107.463 53.7912L108.878 55.2054Z" fill="white" mask="url(#path-1-inside-1_40_1331)"/>
</g>
<defs>
<filter id="filter0_d_40_1331" x="0" y="0" width="211" height="66.9628" filterUnits="userSpaceOnUse" color-interpolation-filters="sRGB">
<feFlood flood-opacity="0" result="BackgroundImageFix"/>
<feColorMatrix in="SourceAlpha" type="matrix" values="0 0 0 0 0 0 0 0 0 0 0 0 0 0 0 0 0 0 127 0" result="hardAlpha"/>
<feOffset dy="1"/>
<feGaussianBlur stdDeviation="5"/>
<feComposite in2="hardAlpha" operator="out"/>
<feColorMatrix type="matrix" values="0 0 0 0 0 0 0 0 0 0 0 0 0 0 0 0 0 0 0.25 0"/>
<feBlend mode="normal" in2="BackgroundImageFix" result="effect1_dropShadow_40_1331"/>
<feBlend mode="normal" in="SourceGraphic" in2="effect1_dropShadow_40_1331" result="shape"/>
</filter>
</defs>
</svg>
