<svg width="159" height="61" viewBox="0 0 159 61" fill="none" xmlns="http://www.w3.org/2000/svg">
<g filter="url(#filter0_d_40_1331)">
<mask id="path-1-inside-1_40_1331" fill="white">
<path fill-rule="evenodd" clip-rule="evenodd" d="M94.3304 38C93.0043 38 91.7325 38.5268 90.7948 39.4645L82.2886 47.9706C80.336 49.9232 77.1702 49.9232 75.2176 47.9706L66.7114 39.4645C65.7737 38.5268 64.502 38 63.1759 38H15C12.2386 38 10 35.7614 10 33V14C10 11.2386 12.2386 8.99999 15 8.99999H144C146.761 8.99999 149 11.2386 149 14V33C149 35.7614 146.761 38 144 38H94.3304Z"/>
</mask>
<path fill-rule="evenodd" clip-rule="evenodd" d="M94.3304 38C93.0043 38 91.7325 38.5268 90.7948 39.4645L82.2886 47.9706C80.336 49.9232 77.1702 49.9232 75.2176 47.9706L66.7114 39.4645C65.7737 38.5268 64.502 38 63.1759 38H15C12.2386 38 10 35.7614 10 33V14C10 11.2386 12.2386 8.99999 15 8.99999H144C146.761 8.99999 149 11.2386 149 14V33C149 35.7614 146.761 38 144 38H94.3304Z" fill="white"/>
<path d="M66.7114 39.4645L66.0043 40.1716L66.7114 39.4645ZM90.7948 39.4645L91.5019 40.1716L90.7948 39.4645ZM82.2886 47.9706L81.5815 47.2635L82.2886 47.9706ZM75.2176 47.9706L75.9247 47.2635L75.2176 47.9706ZM81.5815 47.2635L90.0877 38.7573L91.5019 40.1716L82.9958 48.6777L81.5815 47.2635ZM67.4185 38.7573L75.9247 47.2635L74.5105 48.6777L66.0043 40.1716L67.4185 38.7573ZM63.1759 39H15V37H63.1759V39ZM9 33V14H11V33H9ZM15 7.99999H144V9.99999H15V7.99999ZM150 14V33H148V14H150ZM144 39H94.3304V37H144V39ZM150 33C150 36.3137 147.314 39 144 39V37C146.209 37 148 35.2091 148 33H150ZM144 7.99999C147.314 7.99999 150 10.6863 150 14H148C148 11.7908 146.209 9.99999 144 9.99999V7.99999ZM9 14C9 10.6863 11.6863 7.99999 15 7.99999V9.99999C12.7909 9.99999 11 11.7908 11 14H9ZM15 39C11.6863 39 9 36.3137 9 33H11C11 35.2091 12.7909 37 15 37V39ZM66.0043 40.1716C65.2542 39.4214 64.2367 39 63.1759 39V37C64.7672 37 66.2933 37.6321 67.4185 38.7573L66.0043 40.1716ZM90.0877 38.7573C91.2129 37.6321 92.7391 37 94.3304 37V39C93.2695 39 92.2521 39.4214 91.5019 40.1716L90.0877 38.7573ZM82.9958 48.6777C80.6526 51.0209 76.8536 51.0209 74.5105 48.6777L75.9247 47.2635C77.4868 48.8256 80.0194 48.8256 81.5815 47.2635L82.9958 48.6777Z" fill="white" mask="url(#path-1-inside-1_40_1331)"/>
</g>
<defs>
<filter id="filter0_d_40_1331" x="0" y="0" width="159" height="60.4351" filterUnits="userSpaceOnUse" color-interpolation-filters="sRGB">
<feFlood flood-opacity="0" result="BackgroundImageFix"/>
<feColorMatrix in="SourceAlpha" type="matrix" values="0 0 0 0 0 0 0 0 0 0 0 0 0 0 0 0 0 0 127 0" result="hardAlpha"/>
<feOffset dy="1"/>
<feGaussianBlur stdDeviation="5"/>
<feComposite in2="hardAlpha" operator="out"/>
<feColorMatrix type="matrix" values="0 0 0 0 0 0 0 0 0 0 0 0 0 0 0 0 0 0 0.25 0"/>
<feBlend mode="normal" in2="BackgroundImageFix" result="effect1_dropShadow_40_1331"/>
<feBlend mode="normal" in="SourceGraphic" in2="effect1_dropShadow_40_1331" result="shape"/>
</filter>
</defs>
</svg>
