<svg width="231" height="217" viewBox="0 0 231 217" fill="none" xmlns="http://www.w3.org/2000/svg">
<g filter="url(#filter0_d_40_1336)">
<mask id="path-1-inside-1_40_1336" fill="white">
<path fill-rule="evenodd" clip-rule="evenodd" d="M138.728 31.2721C136.341 31.2721 134.052 30.3239 132.364 28.636L122.364 18.6356C118.849 15.1209 113.151 15.1209 109.636 18.6356L99.6356 28.636C97.9478 30.3239 95.6586 31.2721 93.2717 31.2721H29C24.0294 31.2721 20 35.3015 20 40.2721V183.272C20 188.243 24.0294 192.272 29 192.272H202C206.971 192.272 211 188.243 211 183.272V40.2721C211 35.3015 206.971 31.2721 202 31.2721H138.728Z"/>
</mask>
<path fill-rule="evenodd" clip-rule="evenodd" d="M138.728 31.2721C136.341 31.2721 134.052 30.3239 132.364 28.636L122.364 18.6356C118.849 15.1209 113.151 15.1209 109.636 18.6356L99.6356 28.636C97.9478 30.3239 95.6586 31.2721 93.2717 31.2721H29C24.0294 31.2721 20 35.3015 20 40.2721V183.272C20 188.243 24.0294 192.272 29 192.272H202C206.971 192.272 211 188.243 211 183.272V40.2721C211 35.3015 206.971 31.2721 202 31.2721H138.728Z" fill="white"/>
<path d="M99.6356 28.636L100.343 29.3431L99.6356 28.636ZM132.364 28.636L131.657 29.3431L132.364 28.636ZM109.636 18.6356L108.929 17.9285L109.636 18.6356ZM121.657 19.3427L131.657 29.3431L133.071 27.9289L123.071 17.9285L121.657 19.3427ZM100.343 29.3431L110.343 19.3427L108.929 17.9285L98.9285 27.9289L100.343 29.3431ZM93.2717 30.2721H29V32.2721H93.2717V30.2721ZM19 40.2721V183.272H21V40.2721H19ZM29 193.272H202V191.272H29V193.272ZM212 183.272V40.2721H210V183.272H212ZM202 30.2721H138.728V32.2721H202V30.2721ZM212 40.2721C212 34.7492 207.523 30.2721 202 30.2721V32.2721C206.418 32.2721 210 35.8538 210 40.2721H212ZM202 193.272C207.523 193.272 212 188.795 212 183.272H210C210 187.69 206.418 191.272 202 191.272V193.272ZM19 183.272C19 188.795 23.4772 193.272 29 193.272V191.272C24.5817 191.272 21 187.69 21 183.272H19ZM29 30.2721C23.4772 30.2721 19 34.7492 19 40.2721H21C21 35.8538 24.5817 32.2721 29 32.2721V30.2721ZM98.9285 27.9289C97.4282 29.4292 95.3934 30.2721 93.2717 30.2721V32.2721C95.9238 32.2721 98.4674 31.2185 100.343 29.3431L98.9285 27.9289ZM131.657 29.3431C133.533 31.2185 136.076 32.2721 138.728 32.2721V30.2721C136.607 30.2721 134.572 29.4292 133.071 27.9289L131.657 29.3431ZM123.071 17.9285C119.166 14.0233 112.834 14.0233 108.929 17.9285L110.343 19.3427C113.467 16.2185 118.533 16.2185 121.657 19.3427L123.071 17.9285Z" fill="white" mask="url(#path-1-inside-1_40_1336)"/>
</g>
<defs>
<filter id="filter0_d_40_1336" x="0" y="-0.000427246" width="231" height="216.273" filterUnits="userSpaceOnUse" color-interpolation-filters="sRGB">
<feFlood flood-opacity="0" result="BackgroundImageFix"/>
<feColorMatrix in="SourceAlpha" type="matrix" values="0 0 0 0 0 0 0 0 0 0 0 0 0 0 0 0 0 0 127 0" result="hardAlpha"/>
<feOffset dy="4"/>
<feGaussianBlur stdDeviation="10"/>
<feComposite in2="hardAlpha" operator="out"/>
<feColorMatrix type="matrix" values="0 0 0 0 0 0 0 0 0 0 0 0 0 0 0 0 0 0 0.25 0"/>
<feBlend mode="normal" in2="BackgroundImageFix" result="effect1_dropShadow_40_1336"/>
<feBlend mode="normal" in="SourceGraphic" in2="effect1_dropShadow_40_1336" result="shape"/>
</filter>
</defs>
</svg>
