<svg width="14" height="13" viewBox="0 0 14 13" fill="none" xmlns="http://www.w3.org/2000/svg">
<path id="&#195;&#151;" d="M10.4589 11.8536L10.8125 12.2071L11.1661 11.8536L12.3536 10.6661L12.7071 10.3125L12.3536 9.95895L8.89461 6.5L12.3536 3.04105L12.7071 2.6875L12.3536 2.33395L11.1661 1.14645L10.8125 0.792893L10.4589 1.14645L7 4.60539L3.54105 1.14645L3.1875 0.792893L2.83395 1.14645L1.64645 2.33395L1.29289 2.6875L1.64645 3.04105L5.10539 6.5L1.64645 9.95895L1.29289 10.3125L1.64645 10.6661L2.83395 11.8536L3.1875 12.2071L3.54105 11.8536L7 8.39461L10.4589 11.8536Z" fill="#FF6ABC" stroke="#FF6ABC"/>
</svg>
