<svg width="11" height="11" viewBox="0 0 11 11" fill="none" xmlns="http://www.w3.org/2000/svg">
<g id="circle-info-solid 1" clip-path="url(#clip0_35_37)">
<path id="Vector" d="M5.5 11C6.95869 11 8.35764 10.4205 9.38909 9.38909C10.4205 8.35764 11 6.95869 11 5.5C11 4.04131 10.4205 2.64236 9.38909 1.61091C8.35764 0.579463 6.95869 0 5.5 0C4.04131 0 2.64236 0.579463 1.61091 1.61091C0.579463 2.64236 0 4.04131 0 5.5C0 6.95869 0.579463 8.35764 1.61091 9.38909C2.64236 10.4205 4.04131 11 5.5 11ZM4.64062 7.21875H5.15625V5.84375H4.64062C4.35488 5.84375 4.125 5.61387 4.125 5.32812C4.125 5.04238 4.35488 4.8125 4.64062 4.8125H5.67188C5.95762 4.8125 6.1875 5.04238 6.1875 5.32812V7.21875H6.35938C6.64512 7.21875 6.875 7.44863 6.875 7.73438C6.875 8.02012 6.64512 8.25 6.35938 8.25H4.64062C4.35488 8.25 4.125 8.02012 4.125 7.73438C4.125 7.44863 4.35488 7.21875 4.64062 7.21875ZM5.5 2.75C5.68234 2.75 5.8572 2.82243 5.98614 2.95136C6.11507 3.0803 6.1875 3.25516 6.1875 3.4375C6.1875 3.61984 6.11507 3.7947 5.98614 3.92364C5.8572 4.05257 5.68234 4.125 5.5 4.125C5.31766 4.125 5.1428 4.05257 5.01386 3.92364C4.88493 3.7947 4.8125 3.61984 4.8125 3.4375C4.8125 3.25516 4.88493 3.0803 5.01386 2.95136C5.1428 2.82243 5.31766 2.75 5.5 2.75Z" fill="#FF6ABC" fill-opacity="0.5"/>
</g>
<defs>
<clipPath id="clip0_35_37">
<rect width="11" height="11" fill="white"/>
</clipPath>
</defs>
</svg>
