<svg width="141" height="33" viewBox="0 0 141 33" fill="none" xmlns="http://www.w3.org/2000/svg">
<g clip-path="url(#clip0_8_1063)">
<path d="M19.0338 13.1099H14.9268V31.8882H4.10707V13.1099H0V0.886475H19.0338V13.1099Z" fill="white"/>
<path d="M39.951 17.3179V25.8223C39.951 28.4783 40.0394 30.0745 40.2412 31.8914H31.1281L30.7527 29.412H30.6959C29.5382 31.6264 27.6298 32.7778 25.1126 32.7778C21.3809 32.7778 19.5576 30.2543 19.5576 25.0715C19.5576 19.8888 21.4944 17.1886 25.488 17.1886C27.3112 17.1886 29.0745 17.7217 30.2038 18.6049H30.2606V18.5166C30.2606 16.258 28.9578 15.2392 26.0652 15.2392C23.7499 15.2392 21.5512 15.9047 20.3368 17.0119L20.0466 4.65603C22.5354 3.94629 25.4848 3.54883 28.3774 3.54883C36.9985 3.54883 39.9479 7.04709 39.9479 17.3242L39.951 17.3179ZM28.3206 24.3618C28.3206 26.0904 28.6108 26.6204 29.4184 26.6204C29.7654 26.6204 30.0272 26.532 30.2575 26.2671V22.4565C30.0272 22.1915 29.7654 22.1032 29.4184 22.1032C28.6077 22.1032 28.3206 22.6363 28.3206 24.3618Z" fill="white"/>
<path d="M51.0324 4.4289H54.5906V15.1477H51.0324V17.8952C51.0324 19.179 51.3794 19.668 52.4771 19.668C53.1427 19.668 53.8367 19.4913 54.5874 19.0465V31.8914C52.7642 32.557 51.6948 32.7778 50.0166 32.7778C43.7109 32.7778 41.3672 29.6328 41.3672 21.3051V0.886475H51.0292V4.4289H51.0324Z" fill="white"/>
<path d="M65.9305 5.49187C65.9305 9.21094 64.3407 10.9837 60.956 10.9837C57.5713 10.9837 55.9814 9.21094 55.9814 5.49187C55.9814 1.77279 57.5681 0 60.9528 0C64.3375 0 65.9274 1.77279 65.9274 5.49187H65.9305ZM65.7854 31.8913H56.1234V11.2929C57.483 12.1793 59.0728 12.6209 60.9528 12.6209C62.8329 12.6209 64.4543 12.1793 65.7823 11.2929V31.8882L65.7854 31.8913Z" fill="white"/>
<path d="M77.0656 4.4289H80.6238V15.1477H77.0656V17.8952C77.0656 19.179 77.4126 19.668 78.5103 19.668C79.1759 19.668 79.8699 19.4913 80.6206 19.0465V31.8914C78.7974 32.557 77.728 32.7778 76.0498 32.7778C69.7441 32.7778 67.4004 29.6328 67.4004 21.3051V0.886475H77.0624V4.4289H77.0656Z" fill="white"/>
<path d="M104.03 18.1601C104.03 28.2575 100.529 32.7778 92.8065 32.7778C85.0844 32.7778 81.583 28.2606 81.583 18.1601C81.583 8.05963 85.0844 3.54248 92.8065 3.54248C100.529 3.54248 104.03 8.05963 104.03 18.1601ZM91.6772 18.1601C91.6772 21.0401 91.939 21.835 92.8065 21.835C93.6739 21.835 93.9358 21.037 93.9358 18.1601C93.9358 15.2833 93.6739 14.4852 92.8065 14.4852C91.939 14.4852 91.6772 15.2833 91.6772 18.1601Z" fill="white"/>
<path d="M114.733 4.4289H118.291V15.1477H114.733V17.8952C114.733 19.179 115.08 19.668 116.177 19.668C116.843 19.668 117.537 19.4913 118.288 19.0465V31.8914C116.464 32.557 115.395 32.7778 113.717 32.7778C107.411 32.7778 105.067 29.6328 105.067 21.3051V0.886475H114.729V4.4289H114.733Z" fill="white"/>
<path d="M141 31.8912H131.773L131.571 28.2605H131.514C130.155 31.5379 128.303 32.7776 125.613 32.7776C121.36 32.7776 119.771 29.721 119.771 21.7055V4.42871H129.433V19.4438C129.433 21.2166 129.694 21.8349 130.445 21.8349C130.764 21.8349 131.082 21.7024 131.341 21.4374V4.42871H141.003V31.8912H141Z" fill="white"/>
</g>
<defs>
<clipPath id="clip0_8_1063">
<rect width="141" height="32.7746" fill="white"/>
</clipPath>
</defs>
</svg>
